<svg xmlns="http://www.w3.org/2000/svg" aria-hidden="true" overflow="hidden" style="position:absolute;width:0;height:0">
  <defs>
    <symbol id="icon-Arrow" viewBox="0 0 38 32">
      <path d="M.625 17.218a2.134 2.134 0 0 1 0-3.017L14.201.625a2.134 2.134 0 0 1 3.017 3.017L5.15 15.71l12.068 12.068a2.134 2.134 0 0 1-3.017 3.017L.625 17.219zm37.267.625H2.133v-4.267h35.759v4.267z"/>
    </symbol>
    <symbol id="icon-Facebook" viewBox="0 0 19 32">
      <path d="M17.882.236A42.256 42.256 0 0 0 13.286 0c-5.09 0-8.253 3.242-8.253 8.461v3.543H.757a.756.756 0 0 0-.757.757v5.827a.756.756 0 0 0 .757.757h4.276v11.684a.756.756 0 0 0 .757.757h6.021a.756.756 0 0 0 .757-.757V19.345h4.262a.756.756 0 0 0 .75-.659l.752-5.827a.76.76 0 0 0-.438-.787.764.764 0 0 0-.312-.067h-5.014V9.04c0-1.468.295-2.081 2.131-2.081h3.086a.756.756 0 0 0 .757-.757V.988a.756.756 0 0 0-.659-.75zm-.855 5.207-2.331.002c-3.265 0-3.643 2.052-3.643 3.595v3.723a.754.754 0 0 0 .755.757h4.913l-.559 4.313h-4.353a.756.756 0 0 0-.757.757v11.681H6.545V18.59a.756.756 0 0 0-.757-.757H1.514v-4.314h4.274a.756.756 0 0 0 .757-.757V8.461c0-4.35 2.52-6.947 6.74-6.947 1.527 0 2.906.083 3.741.156v3.773z"/>
    </symbol>
    <symbol id="icon-Instagram" viewBox="0 0 32 32">
      <path d="M15.591 8.273A7.322 7.322 0 0 0 8.83 12.79a7.311 7.311 0 0 0 1.587 7.975 7.323 7.323 0 0 0 7.975 1.587 7.314 7.314 0 0 0 4.517-6.761 7.315 7.315 0 0 0-7.318-7.318zm0 12.727a5.402 5.402 0 0 1-4.997-3.34 5.41 5.41 0 1 1 10.407-2.07 5.421 5.421 0 0 1-5.409 5.409zm7-21h-14A8.592 8.592 0 0 0 0 8.591v14a8.594 8.594 0 0 0 8.591 8.591h14a8.594 8.594 0 0 0 8.591-8.591v-14A8.592 8.592 0 0 0 22.591 0zm6.682 22.591a6.683 6.683 0 0 1-6.682 6.682h-14a6.683 6.683 0 0 1-6.682-6.682v-14a6.683 6.683 0 0 1 6.682-6.682h14a6.683 6.683 0 0 1 6.682 6.682v14zM25.455 7.318a1.59 1.59 0 1 1-3.18 0 1.59 1.59 0 0 1 3.18.001z"/>
    </symbol>
    <symbol id="icon-Telephone" viewBox="0 0 28 32">
      <path d="m26.209 23.222-.182-.227c-1.441-1.821-2.645-2.769-3.678-2.894-.893-.122-1.757.496-2.675 1.131l-.981.613a2.205 2.205 0 0 1-.343.139c-.574.162-2.023.258-2.843-.493-.955-.874-2.436-2.472-3.588-3.87-1.1-1.446-2.31-3.249-2.941-4.385-.533-.962-.087-2.307.211-2.806.059-.098.136-.195.221-.29l.865-.799c.013-.013.018-.028.029-.039.008-.008.022-.006.032-.013.781-.659 1.589-1.338 1.7-2.211.13-1.025-.507-2.411-1.95-4.231L9.91 2.62C9.017 1.475 7.666-.257 5.725.029 4.962.142 4.28.403 3.577.844c-.007.004-.011.013-.017.017s-.013.004-.018.008l-.979.725c-.01.006-.015.018-.025.027-.007.007-.018.008-.027.015-.113.095-.227.193-.339.294-.993.885-3.142 3.454-1.676 8.205.946 3.069 2.898 6.65 5.657 10.377l-.027.022 1.522 1.896.013-.01c2.992 3.539 6.037 6.275 8.827 7.931 1.862 1.106 3.489 1.471 4.827 1.471 1.761 0 3.023-.633 3.655-1.044l.398-.266c.045-.031.077-.074.109-.113l.867-.652c.01-.008.015-.02.025-.028.004-.004.011-.003.017-.007.616-.563 1.043-1.152 1.34-1.851.769-1.791-.608-3.506-1.518-4.641zm.489 4.202c-.231.543-.568 1.005-1.056 1.453l-1.289.97c-1.168.759-3.664 1.697-7.29-.456-2.79-1.656-5.862-4.456-8.884-8.098l-.818-1.033c-2.846-3.774-4.848-7.389-5.793-10.452-1.228-3.983.319-6.119 1.355-7.042.105-.095.21-.183.314-.272l.004-.004.939-.696c.571-.361 1.1-.563 1.709-.655C7.19.943 8.248 2.315 9.025 3.312l.182.231c1.613 2.034 1.768 3.002 1.718 3.396-.056.438-.722 1-1.31 1.494l-.083.07-.007.01-.013.007-.895.827c-.006.006-.008.013-.014.02s-.017.01-.022.017a3.058 3.058 0 0 0-.354.472c-.503.841-.977 2.58-.228 3.926.654 1.176 1.898 3.034 3.042 4.535 1.196 1.45 2.72 3.097 3.709 4 .741.676 1.771.903 2.663.903.477 0 .916-.066 1.247-.16.175-.05.356-.123.542-.214.011-.006.017-.015.028-.022.006-.003.014-.001.02-.006l1.039-.65c.034-.022.056-.052.084-.08l.013.014c.64-.444 1.369-.965 1.826-.889.405.049 1.323.438 2.939 2.478l.186.234c.787.981 1.865 2.325 1.362 3.5z"/>
    </symbol>
  </defs>
</svg>
